<?xml version="1.0" encoding="UTF-8"?>
<svg version="1.1" xmlns="http://www.w3.org/2000/svg" width="512" height="512">
<path d="M0 0 C168.96 0 337.92 0 512 0 C512 168.96 512 337.92 512 512 C343.04 512 174.08 512 0 512 C0 343.04 0 174.08 0 0 Z " fill="#4444BB" transform="translate(0,0)"/>
<path d="M0 0 C2.60881427 -0.00438333 5.2159445 -0.04087614 7.82446289 -0.07861328 C25.70083556 -0.199709 44.56711782 3.44238454 57.94360352 16.39013672 C70.04035547 30.20331969 72.85260556 47.04896195 72.79150391 64.83544922 C72.79164993 65.95827805 72.79179596 67.08110687 72.79194641 68.23796082 C72.79125295 71.92802908 72.78348712 75.61804608 72.77563477 79.30810547 C72.77376858 81.87499972 72.77234562 84.44189433 72.77134705 87.00878906 C72.7679265 93.06112107 72.76005493 99.1134321 72.74999756 105.16575623 C72.73879068 112.0606085 72.73331447 118.95546169 72.72830212 125.85032082 C72.71787099 140.02375879 72.70030015 154.19718148 72.67797852 168.37060547 C30.8775913 175.38075271 30.8775913 175.38075271 14.36010742 174.93310547 C11.95113897 174.86784664 9.54479571 174.85078303 7.13500977 174.83935547 C-13.00082579 174.64275051 -34.11619312 171.67188251 -49.47436523 157.41748047 C-60.71190183 144.9682856 -63.22179354 130.72711856 -62.5012207 114.45507812 C-61.51890961 103.02868565 -54.89863969 93.06369479 -46.75170898 85.34716797 C-31.51006291 72.94801538 -12.60430645 69.16864036 6.61547852 69.18310547 C7.72270264 69.18391113 8.82992676 69.1847168 9.97070312 69.18554688 C21.42295495 69.27053267 32.63138772 70.14868315 43.67797852 73.37060547 C43.11962269 58.19873001 42.15060403 44.84323099 30.86547852 33.55810547 C15.98114974 23.34337003 -5.32318786 24.4436596 -22.50170898 27.22998047 C-27.15151505 28.11536353 -31.73403059 29.20961997 -36.32202148 30.37060547 C-37.98625315 30.71589065 -39.6517609 31.0557746 -41.32202148 31.37060547 C-43.20283273 22.97412669 -44.8725094 15.035693 -44.32202148 6.37060547 C-42.45205079 5.73071516 -40.57557735 5.10983495 -38.69702148 4.49560547 C-37.65288086 4.14755859 -36.60874023 3.79951172 -35.53295898 3.44091797 C-23.9003626 0.21054758 -11.9802156 -0.00224538 0 0 Z " fill="#FDFDFE" transform="translate(182.322021484375,194.62939453125)"/>
<path d="M0 0 C10.56 0 21.12 0 32 0 C32.04563709 10.78123652 32.08213418 21.56240629 32.10362434 32.34371853 C32.11395142 37.35279945 32.12790118 42.36180947 32.15087891 47.37084961 C32.33725903 89.13541695 32.33725903 89.13541695 30.26196289 108.53372192 C29.92959252 111.66285884 29.65187837 114.79571152 29.37365723 117.93003845 C29.07959976 121.20511062 28.75731876 124.47735723 28.4375 127.75 C28.31043228 129.0872287 28.18347965 130.42446834 28.05664062 131.76171875 C27.93353516 133.03144531 27.81042969 134.30117188 27.68359375 135.609375 C27.57587646 136.72280273 27.46815918 137.83623047 27.35717773 138.98339844 C27.03850238 141.67482198 26.53151868 144.34240662 26 147 C19.07 147 12.14 147 5 147 C3.80706157 137.37696333 2.76409909 127.85540344 2.24609375 118.171875 C2.08802342 115.15315709 2.08802342 115.15315709 1.51939392 112.86175537 C0.80597659 108.93097026 0.63052287 105.02659615 0.44360352 101.04003906 C0.40142228 100.1611414 0.35924105 99.28224373 0.31578159 98.3767128 C-0.12551219 88.37109258 -0.12593982 78.37268188 -0.09765625 68.359375 C-0.09578441 66.3701379 -0.09436414 64.38090033 -0.09336853 62.3916626 C-0.08960354 57.22980409 -0.07982693 52.06797503 -0.06866455 46.90612793 C-0.05831878 41.60929767 -0.0538431 36.31246251 -0.04882812 31.015625 C-0.03819737 20.6770685 -0.02065167 10.33854134 0 0 Z " fill="#FCFCFE" transform="translate(353,143)"/>
<path d="M0 0 C0.94423828 -0.02449219 1.88847656 -0.04898437 2.86132812 -0.07421875 C12.82100351 -0.11371515 20.1019787 2.07821749 30.4375 4.375 C30.4375 20.875 30.4375 37.375 30.4375 54.375 C-22.24801061 60.22894562 -22.24801061 60.22894562 -37.75 48.5625 C-39.265625 47 -39.265625 47 -40.5625 45.375 C-40.99046875 44.859375 -41.4184375 44.34375 -41.859375 43.8125 C-44.89399402 39.15664616 -44.97041204 34.20862251 -45.0625 28.8125 C-45.08111084 28.09215576 -45.09972168 27.37181152 -45.11889648 26.62963867 C-45.04338611 20.22298688 -42.99048096 16.18997355 -38.7734375 11.30078125 C-27.78511325 1.64508356 -14.18426055 0.0188245 0 0 Z " fill="#4646BB" transform="translate(195.5625,287.625)"/>
<path d="M0 0 C5.85952678 3.86196083 9.3960761 9.18332343 11 16 C11.90762571 24.40748028 10.1831674 31.66189584 4.875 38.3125 C-0.34559739 43.78429768 -5.90788756 46.14831822 -13.4375 46.5625 C-20.23160934 46.27703322 -25.89279064 43.88204926 -30.88671875 39.25 C-32.39763356 37.55250734 -33.74575867 35.8940739 -35 34 C-35.37253906 33.43925781 -35.74507813 32.87851562 -36.12890625 32.30078125 C-38.49060132 26.0629409 -38.19399536 16.66194114 -36.125 10.31640625 C-28.24011625 -2.98933507 -13.73875158 -6.74886043 0 0 Z " fill="#FCFCFE" transform="translate(382,324)"/>
<path d="M0 0 C0.33 0 0.66 0 1 0 C1 13.53 1 27.06 1 41 C-12.53 41 -26.06 41 -40 41 C-36.77794772 39.38897386 -33.66489916 38.09649079 -30.3125 36.8125 C-16.32964928 30.99481758 -7.86955879 20.70813891 -2 7 C-1.17794005 4.65968578 -0.55034658 2.42152494 0 0 Z " fill="#000000" transform="translate(511,471)"/>
<path d="M0 0 C1.61102614 3.22205228 2.90350921 6.33510084 4.1875 9.6875 C10.00518242 23.67035072 20.29186109 32.13044121 34 38 C36.34031422 38.82205995 38.57847506 39.44965342 41 40 C41 40.33 41 40.66 41 41 C27.47 41 13.94 41 0 41 C0 27.47 0 13.94 0 0 Z " fill="#000000" transform="translate(0,471)"/>
<path d="M0 0 C13.53 0 27.06 0 41 0 C41 13.53 41 27.06 41 41 C39.38897386 37.77794772 38.09649079 34.66489916 36.8125 31.3125 C30.99481758 17.32964928 20.70813891 8.86955879 7 3 C4.65968578 2.17794005 2.42152494 1.55034658 0 1 C0 0.67 0 0.34 0 0 Z " fill="#000000" transform="translate(471,0)"/>
<path d="M0 0 C13.53 0 27.06 0 41 0 C37.77794772 1.61102614 34.66489916 2.90350921 31.3125 4.1875 C17.32964928 10.00518242 8.86955879 20.29186109 3 34 C2.17794005 36.34031422 1.55034658 38.57847506 1 41 C0.67 41 0.34 41 0 41 C0 27.47 0 13.94 0 0 Z " fill="#000000" transform="translate(0,0)"/>
</svg>
